# xmcd
#
# Track frame offsets:
#	150
#	15363
#	31726
#	49045
#	64832
#	84108
#	97675
#	119204
#	134926
#	153346
#	173055
#	191175
#	208664
#	225526
#	246841
#	263625
#
# Disc length: 3728 seconds
#
# Revision: 0
# Processed by: cddbd v1.5.2PL0 Copyright (c) Steve Scherf et al.
# Submitted via: audiograbber 1.82.01
#
DISCID=d10e8e10
DTITLE=Restless Heart - Greatest Hits
DYEAR=1998
DGENRE=Country
TTITLE0=No End To This Road - (Previously Unreleased)
TTITLE1=Let The Heartache Ride  
TTITLE2=Heartbreak Kid, (Back To The)
TTITLE3=That Rock Won't Roll  
TTITLE4=I'll Still Be Loving You  
TTITLE5=Why Does It Have To Be (Wrong Or Right)
TTITLE6=The Bluest Eyes In Texas
TTITLE7=A Tender Lie
TTITLE8=Big Dreams In A Small Town  
TTITLE9=Fast Movin' Train  
TTITLE10=Dancy's Dream  
TTITLE11=Long Lost Friend  
TTITLE12=When She Cries  
TTITLE13=Tell Me What You Dream  
TTITLE14=For Lack Of Better Words - (Previously Unreleased)
TTITLE15=Somebody's Gonna Get That Girl - (Previously Unreleased)
EXTD=
EXTT0=
EXTT1=
EXTT2=
EXTT3=
EXTT4=
EXTT5=
EXTT6=
EXTT7=
EXTT8=
EXTT9=
EXTT10=
EXTT11=
EXTT12=
EXTT13=
EXTT14=
EXTT15=
PLAYORDER=
